<?xml version="1.0" encoding="utf-8"?>
<svg xmlns="http://www.w3.org/2000/svg" viewBox="0 0 64 64" width="25" height="25">
  <linearGradient id="c0M7RMWa02fQ4_Up~CaIta" x1="32" x2="32" y1="12.787" y2="77.598" gradientTransform="matrix(1 0 0 -1 0 66)" gradientUnits="userSpaceOnUse">
    <stop offset="0" stop-color="#155cde" />
    <stop offset=".278" stop-color="#1f7fe5" />
    <stop offset=".569" stop-color="#279ceb" />
    <stop offset=".82" stop-color="#2cafef" />
    <stop offset="1" stop-color="#2eb5f0" />
  </linearGradient>
  <path fill="url(#c0M7RMWa02fQ4_Up~CaIta)" d="M60,17.92v28.16c-0.01,0.7-0.13,1.37-0.36,1.98c-0.13,0.35-0.29,0.69-0.48,1c0,0.01-0.01,0.01-0.01,0.02c-0.16,0.26-0.33,0.51-0.52,0.74c-0.12,0.14-0.25,0.28-0.39,0.41c-0.13,0.13-0.26,0.26-0.41,0.38l-0.01,0.01c-0.55,0.46-1.19,0.82-1.88,1.05c-0.47,0.16-0.96,0.27-1.47,0.3c-0.02,0.01-0.05,0.01-0.07,0.01C54.27,52,54.14,52,54,52H10c-0.14,0-0.28,0-0.41-0.02H9.55c-0.52-0.04-1.01-0.14-1.49-0.32H8.05c-0.7-0.23-1.34-0.6-1.9-1.07l-0.01-0.01c-0.29-0.24-0.55-0.5-0.79-0.8c-0.19-0.22-0.35-0.46-0.5-0.71v-0.01c-0.19-0.32-0.36-0.65-0.49-1C4.13,47.44,4.01,46.77,4,46.08V17.92c0.01-0.69,0.13-1.35,0.36-1.96c0.13-0.36,0.29-0.69,0.47-1.01c0.01,0,0.01-0.01,0.01-0.01c0.15-0.26,0.33-0.51,0.52-0.74c0.24-0.3,0.5-0.55,0.8-0.79l0.01-0.01c0.55-0.47,1.19-0.84,1.89-1.07c0.47-0.16,0.97-0.27,1.49-0.3c0.02-0.01,0.03-0.01,0.05-0.01C9.73,12,9.86,12,10,12h44c0.14,0,0.28,0,0.41,0.02c0.02,0,0.05,0,0.07,0.01c0.52,0.03,1.01,0.14,1.47,0.3c0.71,0.24,1.36,0.62,1.92,1.09c0.01,0.01,0.01,0.01,0.02,0.02c0.28,0.23,0.55,0.51,0.77,0.79c0.18,0.22,0.35,0.46,0.49,0.71c0,0,0,0.01,0.01,0.01c0.18,0.32,0.35,0.64,0.48,1C59.87,16.56,59.99,17.23,60,17.92z" />
  <linearGradient id="c0M7RMWa02fQ4_Up~CaItb" x1="32" x2="32" y1="-11.213" y2="8.575" gradientTransform="matrix(1 0 0 -1 0 66)" gradientUnits="userSpaceOnUse">
    <stop offset="0" stop-color="#ffe79f" />
    <stop offset=".258" stop-color="#ffe9a7" />
    <stop offset=".66" stop-color="#ffefbd" />
    <stop offset="1" stop-color="#fff5d5" />
  </linearGradient>
  <rect width="10" height="25" x="27" y="12" fill="url(#c0M7RMWa02fQ4_Up~CaItb)" />
  <linearGradient id="c0M7RMWa02fQ4_Up~CaItc" x1="32" x2="32" y1="-11.213" y2="8.575" gradientTransform="matrix(1 0 0 -1 0 66)" gradientUnits="userSpaceOnUse">
    <stop offset="0" stop-color="#ffe79f" />
    <stop offset=".258" stop-color="#ffe9a7" />
    <stop offset=".66" stop-color="#ffefbd" />
    <stop offset="1" stop-color="#fff5d5" />
  </linearGradient>
  <path fill="url(#c0M7RMWa02fQ4_Up~CaItc)" d="M60,46.03v0.05c-0.01,0.7-0.13,1.37-0.36,1.98c-0.13,0.35-0.29,0.69-0.48,1c0,0.01-0.01,0.01-0.01,0.02c-0.16,0.26-0.33,0.51-0.52,0.74c-0.12,0.14-0.25,0.28-0.39,0.41c-0.13,0.13-0.26,0.26-0.41,0.38l-0.01,0.01c-0.55,0.46-1.19,0.82-1.88,1.05c-0.47,0.16-0.96,0.27-1.47,0.3L37,40.22l-3-2.03L32.23,37l-0.29-0.2L30,35.49l-0.74-0.5L27.79,34l-0.24-0.16L27,33.46l-2.12-1.43l-3-2.03l-4.44-3L4,17.96v-0.04c0.01-0.69,0.13-1.35,0.36-1.96c0.13-0.36,0.29-0.69,0.47-1.01c0.01,0,0.01-0.01,0.01-0.01c0.15-0.26,0.33-0.51,0.52-0.74c0.24-0.3,0.5-0.55,0.8-0.79l0.01-0.01c0.55-0.47,1.19-0.84,1.89-1.07c0.47-0.16,0.97-0.27,1.49-0.3L27,23.78l3,2.03L31.77,27l0.29,0.2L34,28.51l0.74,0.5L36.21,30l0.24,0.16L37,30.54l2.12,1.43l3,2.03l4.44,3L60,46.03z" />
  <linearGradient id="c0M7RMWa02fQ4_Up~CaItd" x1="4.83" x2="59.16" y1="33.99" y2="33.99" gradientTransform="matrix(1 0 0 -1 0 66)" gradientUnits="userSpaceOnUse">
    <stop offset="0" stop-color="#ff5840" />
    <stop offset=".007" stop-color="#ff5840" />
    <stop offset=".989" stop-color="#fa528c" />
    <stop offset="1" stop-color="#fa528c" />
  </linearGradient>
  <path fill="url(#c0M7RMWa02fQ4_Up~CaItd)" d="M4.83,14.95L22.75,27L27,29.86L27.2,30l0.35,0.24L30,31.89l0.23,0.15l1.71,1.15l1.2,0.81L34,34.58l0.62,0.41L37,36.6l0.6,0.4l20.23,13.61c0.15-0.12,0.28-0.25,0.41-0.38c0.14-0.13,0.27-0.27,0.39-0.41c0.19-0.23,0.36-0.48,0.52-0.74c0-0.01,0.01-0.01,0.01-0.02L41.22,37L37,34.16L36.76,34l-0.33-0.22L34,32.14l-0.25-0.17l-1.71-1.15L30.82,30L30,29.45l-0.64-0.43L27,27.43L26.37,27L6.16,13.41L4.83,14.95z" />
  <linearGradient id="c0M7RMWa02fQ4_Up~CaIte" x1="32" x2="32" y1="-11.213" y2="8.575" gradientTransform="matrix(1 0 0 -1 0 66)" gradientUnits="userSpaceOnUse">
    <stop offset="0" stop-color="#ffe79f" />
    <stop offset=".258" stop-color="#ffe9a7" />
    <stop offset=".66" stop-color="#ffefbd" />
    <stop offset="1" stop-color="#fff5d5" />
  </linearGradient>
  <path fill="url(#c0M7RMWa02fQ4_Up~CaIte)" d="M60,17.92v0.03L46.5,27l-4.46,3l-2.92,1.97L37,33.39l-0.57,0.39L36.1,34l-1.48,0.99L34,35.41l-2.06,1.39l-0.3,0.2l-0.18,0.12L30,38.11l-3,2.04L9.55,51.98c-0.52-0.04-1.01-0.14-1.49-0.32H8.05c-0.7-0.23-1.34-0.6-1.9-1.07l-0.01-0.01c-0.29-0.24-0.55-0.5-0.79-0.8c-0.19-0.22-0.35-0.46-0.5-0.71v-0.01c-0.19-0.32-0.36-0.65-0.49-1C4.13,47.44,4.01,46.77,4,46.08v-0.02L17.5,37l4.46-3l2.92-1.97L27,30.61l0.55-0.37L27.9,30l1.46-0.98L30,28.59l2.06-1.39l0.3-0.2l0.18-0.12L34,25.89l3-2.04l17.48-11.82c0.52,0.03,1.01,0.14,1.47,0.3c0.71,0.24,1.36,0.62,1.92,1.09c0.01,0.01,0.01,0.01,0.02,0.02c0.28,0.23,0.55,0.51,0.77,0.79c0.18,0.22,0.35,0.46,0.49,0.71c0,0,0,0.01,0.01,0.01c0.18,0.32,0.35,0.64,0.48,1C59.87,16.56,59.99,17.23,60,17.92z" />
  <linearGradient id="c0M7RMWa02fQ4_Up~CaItf" x1="4.85" x2="59.16" y1="33.99" y2="33.99" gradientTransform="matrix(1 0 0 -1 0 66)" gradientUnits="userSpaceOnUse">
    <stop offset="0" stop-color="#ff5840" />
    <stop offset=".007" stop-color="#ff5840" />
    <stop offset=".989" stop-color="#fa528c" />
    <stop offset="1" stop-color="#fa528c" />
  </linearGradient>
  <path fill="url(#c0M7RMWa02fQ4_Up~CaItf)" d="M59.16,14.95L41.16,27L37,29.79L36.69,30l-0.24,0.16L34,31.8l-0.25,0.17l-1.81,1.22L30.73,34L30,34.49l-0.21,0.14l-0.53,0.36L27,36.51L26.28,37L6.14,50.58c-0.29-0.24-0.55-0.5-0.79-0.8c-0.19-0.22-0.35-0.46-0.5-0.71v-0.01L22.84,37L27,34.21L27.31,34l0.24-0.16L30,32.19l0.23-0.15l1.81-1.22L33.27,30L34,29.51l0.21-0.14l0.53-0.36L37,27.49L37.73,27l20.16-13.56c0.28,0.23,0.55,0.51,0.77,0.79c0.18,0.22,0.35,0.46,0.49,0.71C59.15,14.94,59.15,14.95,59.16,14.95z" />
  <linearGradient id="c0M7RMWa02fQ4_Up~CaItg" x1="32" x2="32" y1="-11.213" y2="8.575" gradientTransform="matrix(1 0 0 -1 0 66)" gradientUnits="userSpaceOnUse">
    <stop offset="0" stop-color="#ffe79f" />
    <stop offset=".258" stop-color="#ffe9a7" />
    <stop offset=".66" stop-color="#ffefbd" />
    <stop offset="1" stop-color="#fff5d5" />
  </linearGradient>
  <rect width="56" height="10" x="4" y="27" fill="url(#c0M7RMWa02fQ4_Up~CaItg)" />
  <linearGradient id="c0M7RMWa02fQ4_Up~CaIth" x1="32" x2="32" y1="10.617" y2="93" gradientTransform="matrix(1 0 0 -1 0 66)" gradientUnits="userSpaceOnUse">
    <stop offset="0" stop-color="#ff5840" />
    <stop offset=".007" stop-color="#ff5840" />
    <stop offset=".989" stop-color="#fa528c" />
    <stop offset="1" stop-color="#fa528c" />
  </linearGradient>
  <rect width="4" height="25" x="30" y="12" fill="url(#c0M7RMWa02fQ4_Up~CaIth)" />
  <linearGradient id="c0M7RMWa02fQ4_Up~CaIti" x1="32" x2="32" y1="10.617" y2="93" gradientTransform="matrix(1 0 0 -1 0 66)" gradientUnits="userSpaceOnUse">
    <stop offset="0" stop-color="#ff5840" />
    <stop offset=".007" stop-color="#ff5840" />
    <stop offset=".989" stop-color="#fa528c" />
    <stop offset="1" stop-color="#fa528c" />
  </linearGradient>
  <rect width="56" height="4" x="4" y="30" fill="url(#c0M7RMWa02fQ4_Up~CaIti)" />
</svg>