<?xml version="1.0" encoding="utf-8"?>
<svg xmlns="http://www.w3.org/2000/svg" width="40" height="40" viewBox="0 0 64 64">
  <radialGradient id="mKBjrtB0ZYTwAeLnZe0sNa" cx="32" cy="-519.5" r="31.259" gradientTransform="matrix(1 0 0 -1 0 -488)" gradientUnits="userSpaceOnUse">
    <stop offset="0" stop-color="#f4e9c3" />
    <stop offset=".219" stop-color="#f8eecd" />
    <stop offset=".644" stop-color="#fdf4dc" />
    <stop offset="1" stop-color="#fff6e1" />
  </radialGradient>
  <path fill="url(#mKBjrtB0ZYTwAeLnZe0sNa)" d="M58,54c-1.215,0-2.176-1.082-1.973-2.335C56.187,50.681,57.109,50,58.106,50h2.28c1.67,0,3.195-1.122,3.537-2.757C64.392,44.998,62.668,43,60.5,43H50.142c-1.308,0-2.499-0.941-2.629-2.243C47.363,39.261,48.534,38,50,38h7.869c1.451,0,2.789-0.972,3.071-2.395C61.319,33.693,59.848,32,58,32H48c-1.657,0-3-1.343-3-3v0c0-1.657,1.343-3,3-3h12c2.335,0,4.22-2.028,3.979-4.41C63.769,19.514,61.897,18,59.81,18h-1.705c-0.996,0-1.919-0.681-2.078-1.665C55.824,15.082,56.785,14,58,14h0.357c1.308,0,2.5-0.942,2.63-2.244C61.136,10.26,59.965,9,58.5,9h-10C47.672,9,47,8.328,47,7.5S47.672,6,48.5,6h2.857c1.308,0,2.5-0.942,2.63-2.244C54.136,2.26,52.965,1,51.5,1L11.643,1c-1.308,0-2.5,0.942-2.63,2.244C8.864,4.74,10.035,6,11.5,6h1.394c0.996,0,1.919,0.681,2.078,1.665C15.176,8.918,14.215,10,13,10H6.19c-2.086,0-3.959,1.514-4.169,3.59C1.78,15.972,3.665,18,6,18h2.302c1.895,0,3.594,1.419,3.693,3.312C12.101,23.33,10.495,25,8.5,25H5.19c-2.086,0-3.959,1.514-4.169,3.59C0.78,30.972,2.665,33,5,33h19v11H6.131c-1.451,0-2.789,0.972-3.071,2.395C2.681,48.307,4.152,50,6,50l0,0c1.215,0,2.176,1.082,1.973,2.335C7.813,53.319,6.891,54,5.894,54H4.19c-2.086,0-3.959,1.514-4.169,3.59C-0.22,59.972,1.665,62,4,62h53.81c2.086,0,3.959-1.514,4.169-3.59C62.22,56.028,60.335,54,58,54z" />
  <linearGradient id="mKBjrtB0ZYTwAeLnZe0sNb" x1="31" x2="31" y1="53" y2="9.954" gradientUnits="userSpaceOnUse">
    <stop offset="0" stop-color="#155cde" />
    <stop offset=".278" stop-color="#1f7fe5" />
    <stop offset=".569" stop-color="#279ceb" />
    <stop offset=".82" stop-color="#2cafef" />
    <stop offset="1" stop-color="#2eb5f0" />
  </linearGradient>
  <path fill="url(#mKBjrtB0ZYTwAeLnZe0sNb)" d="M13.854,45.824L34.5,18H18c-2.209,0-4-1.791-4-4v0c0-2.209,1.791-4,4-4h25.299 c2.563,0,4.67,2.107,4.67,4.669c0,1.025-0.341,2.051-0.911,2.791L26.5,45H45c2.209,0,4,1.791,4,4v0c0,2.209-1.791,4-4,4H17.499 C15.05,53,13,51.007,13,48.5C13,47.475,13.285,46.564,13.854,45.824z" />
</svg>